<svg width="32" height="32" viewBox="0 0 32 32" fill="none" xmlns="http://www.w3.org/2000/svg">
<path d="M3.98911 21.7881C4.18515 22.2826 4.22879 22.8244 4.11443 23.344L2.69452 27.7304C2.64877 27.9528 2.6606 28.1833 2.72888 28.3999C2.79717 28.6165 2.91965 28.812 3.08472 28.968C3.24978 29.124 3.45195 29.2352 3.67206 29.2911C3.89217 29.3471 4.12291 29.3459 4.34242 29.2876L8.89282 27.957C9.38308 27.8598 9.8908 27.9023 10.3581 28.0797C13.2051 29.4092 16.4302 29.6905 19.4644 28.8739C22.4986 28.0573 25.1469 26.1953 26.942 23.6164C28.7371 21.0375 29.5638 17.9075 29.276 14.7785C28.9883 11.6496 27.6046 8.72279 25.3693 6.51456C23.1339 4.30632 20.1904 2.95856 17.0582 2.70905C13.9259 2.45954 10.8062 3.32433 8.24944 5.15083C5.69267 6.97733 3.86316 9.64816 3.08369 12.6921C2.30421 15.7361 2.62488 18.9575 3.98911 21.7881Z" stroke="#155DFC" stroke-width="2.66651" stroke-linecap="round" stroke-linejoin="round"/>
</svg>
