<svg width="40" height="40" viewBox="0 0 40 40" fill="none" xmlns="http://www.w3.org/2000/svg">
<path d="M26.6666 35V31.6667C26.6666 29.8986 25.9643 28.2029 24.714 26.9526C23.4638 25.7024 21.7681 25 20 25H9.99998C8.23187 25 6.53618 25.7024 5.28593 26.9526C4.03569 28.2029 3.33331 29.8986 3.33331 31.6667V35" stroke="#00A63E" stroke-width="3.33333" stroke-linecap="round" stroke-linejoin="round"/>
<path d="M26.6667 5.21338C28.0963 5.584 29.3623 6.41882 30.2662 7.58682C31.17 8.75481 31.6604 10.1899 31.6604 11.6667C31.6604 13.1436 31.17 14.5786 30.2662 15.7466C29.3623 16.9146 28.0963 17.7494 26.6667 18.12" stroke="#00A63E" stroke-width="3.33333" stroke-linecap="round" stroke-linejoin="round"/>
<path d="M36.6667 35V31.6667C36.6656 30.1896 36.1739 28.7546 35.269 27.5872C34.364 26.4198 33.0969 25.586 31.6667 25.2167" stroke="#00A63E" stroke-width="3.33333" stroke-linecap="round" stroke-linejoin="round"/>
<path d="M15 18.3333C18.6819 18.3333 21.6666 15.3486 21.6666 11.6667C21.6666 7.98477 18.6819 5 15 5C11.3181 5 8.33331 7.98477 8.33331 11.6667C8.33331 15.3486 11.3181 18.3333 15 18.3333Z" stroke="#00A63E" stroke-width="3.33333" stroke-linecap="round" stroke-linejoin="round"/>
</svg>
