<svg width="24" height="24" viewBox="0 0 24 24" fill="none" xmlns="http://www.w3.org/2000/svg">
<g clip-path="url(#clip0_1_256)">
<path d="M21.4166 10.9203C21.5956 10.8413 21.7475 10.7116 21.8535 10.5471C21.9595 10.3827 22.0149 10.1908 22.0128 9.99516C22.0108 9.79954 21.9515 9.60881 21.8421 9.44659C21.7327 9.28438 21.5782 9.15781 21.3976 9.08257L12.828 5.17918C12.5675 5.06035 12.2844 4.99886 11.9981 4.99886C11.7118 4.99886 11.4288 5.06035 11.1682 5.17918L2.59959 9.07857C2.42159 9.15653 2.27016 9.28467 2.16382 9.44733C2.05749 9.60998 2.00086 9.8001 2.00086 9.99442C2.00086 10.1888 2.05749 10.3789 2.16382 10.5415C2.27016 10.7042 2.42159 10.8323 2.59959 10.9103L11.1682 14.8177C11.4288 14.9365 11.7118 14.998 11.9981 14.998C12.2844 14.998 12.5675 14.9365 12.828 14.8177L21.4166 10.9203Z" stroke="white" stroke-width="1.99968" stroke-linecap="round" stroke-linejoin="round"/>
<path d="M21.9965 9.99842V15.9984" stroke="white" stroke-width="1.99968" stroke-linecap="round" stroke-linejoin="round"/>
<path d="M5.99905 12.498V15.9975C5.99905 16.793 6.63109 17.5559 7.75613 18.1185C8.88117 18.681 10.4071 18.997 11.9981 18.997C13.5892 18.997 15.115 18.681 16.2401 18.1185C17.3651 17.5559 17.9972 16.793 17.9972 15.9975V12.498" stroke="white" stroke-width="1.99968" stroke-linecap="round" stroke-linejoin="round"/>
</g>
<defs>
<clipPath id="clip0_1_256">
<rect width="23.9962" height="23.9962" fill="white"/>
</clipPath>
</defs>
</svg>
