<svg width="24" height="24" viewBox="0 0 24 24" fill="none" xmlns="http://www.w3.org/2000/svg">
<path d="M15.9975 20.9967V18.997C15.9975 17.9363 15.5761 16.919 14.8261 16.169C14.0761 15.419 13.0588 14.9976 11.9981 14.9976H5.99906C4.93836 14.9976 3.92111 15.419 3.17108 16.169C2.42106 16.919 1.99969 17.9363 1.99969 18.997V20.9967" stroke="white" stroke-width="1.99968" stroke-linecap="round" stroke-linejoin="round"/>
<path d="M15.9975 3.12756C16.8551 3.3499 17.6146 3.85071 18.1568 4.5514C18.699 5.25209 18.9932 6.11298 18.9932 6.99895C18.9932 7.88492 18.699 8.74582 18.1568 9.4465C17.6146 10.1472 16.8551 10.648 15.9975 10.8703" stroke="white" stroke-width="1.99968" stroke-linecap="round" stroke-linejoin="round"/>
<path d="M21.997 20.9976V18.9976C21.9963 18.1114 21.7014 17.2504 21.1584 16.5499C20.6154 15.8495 19.8551 15.3492 18.997 15.1276" stroke="white" stroke-width="1.99968" stroke-linecap="round" stroke-linejoin="round"/>
<path d="M8.99857 10.9982C11.2074 10.9982 12.9979 9.20767 12.9979 6.99888C12.9979 4.79009 11.2074 2.99951 8.99857 2.99951C6.78978 2.99951 4.99921 4.79009 4.99921 6.99888C4.99921 9.20767 6.78978 10.9982 8.99857 10.9982Z" stroke="white" stroke-width="1.99968" stroke-linecap="round" stroke-linejoin="round"/>
</svg>
