<svg width="32" height="32" viewBox="0 0 32 32" fill="none" xmlns="http://www.w3.org/2000/svg">
<path d="M21.3321 27.9984V25.3319C21.3321 23.9175 20.7702 22.561 19.7701 21.5608C18.7699 20.5607 17.4135 19.9988 15.999 19.9988H7.99952C6.58512 19.9988 5.22864 20.5607 4.22851 21.5608C3.22837 22.561 2.6665 23.9175 2.6665 25.3319V27.9984" stroke="#155DFC" stroke-width="2.66651" stroke-linecap="round" stroke-linejoin="round"/>
<path d="M21.3321 4.17041C22.4757 4.46689 23.4885 5.13471 24.2115 6.06905C24.9345 7.00339 25.3268 8.15136 25.3268 9.33277C25.3268 10.5142 24.9345 11.6622 24.2115 12.5965C23.4885 13.5308 22.4757 14.1987 21.3321 14.4951" stroke="#155DFC" stroke-width="2.66651" stroke-linecap="round" stroke-linejoin="round"/>
<path d="M29.3316 27.9983V25.3318C29.3307 24.1502 28.9374 23.0023 28.2135 22.0684C27.4895 21.1345 26.4759 20.4675 25.3318 20.1721" stroke="#155DFC" stroke-width="2.66651" stroke-linecap="round" stroke-linejoin="round"/>
<path d="M11.9993 14.6658C14.9446 14.6658 17.3323 12.2781 17.3323 9.33277C17.3323 6.38743 14.9446 3.99976 11.9993 3.99976C9.05395 3.99976 6.66628 6.38743 6.66628 9.33277C6.66628 12.2781 9.05395 14.6658 11.9993 14.6658Z" stroke="#155DFC" stroke-width="2.66651" stroke-linecap="round" stroke-linejoin="round"/>
</svg>
